<mxfile host="app.diagrams.net" modified="2023-11-24T08:05:02.017Z" agent="Mozilla/5.0 (Windows NT 10.0; Win64; x64) AppleWebKit/537.36 (KHTML, like Gecko) Chrome/119.0.0.0 Safari/537.36 Edg/119.0.0.0" version="22.1.3" etag="073oAmWiRvoY7vClA-e2" type="github">
  <diagram name="第 1 页" id="gROYpvjp-lotRPpp2lwW">
    <mxGraphModel>
      <root>
        <mxCell id="0" />
        <mxCell id="1" parent="0" />
      </root>
    </mxGraphModel>
  </diagram>
</mxfile>
